<svg xmlns="http://www.w3.org/2000/svg" version="1.1" xmlns:xlink="http://www.w3.org/1999/xlink" xmlns:svgjs="http://svgjs.dev/svgjs" width="1536" height="739" preserveAspectRatio="none" viewBox="0 0 1536 739"><g mask="url(&quot;#SvgjsMask1118&quot;)" fill="none"><rect width="1536" height="739" x="0" y="0" fill="#0e2a47"></rect><path d="M768 889.12C904.17 880.45 1032.52 826.97 1127.86 729.36 1222.04 632.93 1263.18 503.73 1275.45 369.5 1289.29 218.13 1306.87 45.62 1200.21-62.71 1093.21-171.41 920.42-151.28 768-145.97 623.09-140.94 469.24-134.28 364.83-33.67 258.99 68.29 234 222.52 232.98 369.5 231.96 517.74 252.93 674.92 359.29 778.21 464.55 880.45 621.56 898.44 768 889.12" fill="rgba(12, 17, 228, 1)"></path><path d="M768 705.73C856.11 700.12 939.16 665.51 1000.85 602.35 1061.79 539.96 1088.41 456.36 1096.35 369.5 1105.3 271.56 1116.68 159.93 1047.66 89.84 978.43 19.5 866.63 32.53 768 35.96 674.24 39.21 574.69 43.53 507.12 108.62 438.64 174.6 422.47 274.39 421.81 369.5 421.15 465.42 434.72 567.13 503.54 633.96 571.65 700.12 673.25 711.75 768 705.73" fill="rgba(12, 228, 39, 1)"></path><path d="M768 522.33C808.05 519.78 845.8 504.05 873.84 475.34 901.54 446.98 913.64 408.98 917.25 369.5 921.32 324.98 926.49 274.24 895.12 242.38 863.65 210.41 812.83 216.33 768 217.89 725.38 219.37 680.13 221.33 649.42 250.92 618.29 280.91 610.94 326.27 610.64 369.5 610.34 413.1 616.51 459.33 647.79 489.71 678.75 519.78 724.93 525.07 768 522.33" fill="rgba(228, 127, 12, 1)"></path></g><defs><mask id="SvgjsMask1118"><rect width="1536" height="739" fill="#ffffff"></rect></mask></defs></svg>