<svg xmlns="http://www.w3.org/2000/svg" version="1.1" xmlns:xlink="http://www.w3.org/1999/xlink" xmlns:svgjs="http://svgjs.dev/svgjs" width="1536" height="739" preserveAspectRatio="none" viewBox="0 0 1536 739"><g mask="url(&quot;#SvgjsMask1356&quot;)" fill="none"><rect width="1536" height="739" x="0" y="0" fill="url(&quot;#SvgjsLinearGradient1357&quot;)"></rect><path d="M0 95.47L10 153.16L20 208.31L30 297.66L40 297.33L50 220.01L60 148.66L70 109.98L80 52.65L90 138.89L100 220.25L110 169.34L120 95.02L130 182.56L140 203L150 231.41L160 262.85L170 212.61L180 205.46L190 149.79L200 101.83L210 129.47L220 215.18L230 166.56L240 195.5L250 204.38L260 194.35L270 200.1L280 118.48L290 98.78L300 104.17L310 92.41L320 107.09L330 32.98L340 44.05L350 23.38L360 51.15L370 5.37L380 8.66L390 84.79L400 103.5L410 36.88L420 8.38L430 69.99L440 101.26L450 32.36L460 117.37L470 74.43L480 114.9L490 115.16L500 186.82L510 211.34L520 164.69L530 234.04L540 200.03L550 218.53L560 201.95L570 130.25L580 205.41L590 225.95L600 258.13L610 247.96L620 297.52L630 297.67L640 284.26L650 312.75L660 328.63L670 305L680 309.05L690 218.84L700 293.28L710 282.09L720 274.25L730 200.22L740 176.53L750 185.56L760 234.24L770 242.66L780 197.13L790 223.01L800 310.49L810 398.13L820 342.38L830 309.11L840 318.8L850 277.48L860 346.21L870 376.59L880 337.03L890 396.69L900 461.14L910 440.02L920 382.71L930 392.06L940 373.84L950 343.32L960 411.9L970 423.3L980 458.06L990 528.5L1000 577.63L1010 583.71L1020 655.97L1030 574.8L1040 528.84L1050 589.93L1060 645.54L1070 664.51L1080 635.97L1090 568.44L1100 585.16L1110 527.15L1120 528.38L1130 536.19L1140 518.22L1150 577.11L1160 582.95L1170 624.77L1180 582.81L1190 495.92L1200 528.75L1210 550.03L1220 514.58L1230 495.36L1240 567.75L1250 560.63L1260 586.84L1270 635.39L1280 609.55L1290 578.88L1300 607.6L1310 697.89L1320 678.88L1330 662.61L1340 700.2L1350 618.8L1360 586.79L1370 510.46L1380 471.58L1390 548.87L1400 479L1410 534.62L1420 606.46L1430 532.13L1440 533.39L1450 475.81L1460 436.51L1470 375.83L1480 455.08L1490 511L1500 431.42L1510 352.21L1520 293.06L1530 315.28L1540 360.72" stroke="rgba(2, 255, 132, 1)" stroke-width="2"></path><path d="M0 95.47L10 153.16L20 208.31L30 297.66L40 297.33L50 220.01L60 148.66L70 109.98L80 52.65L90 138.89L100 220.25L110 169.34L120 95.02L130 182.56L140 203L150 231.41L160 262.85L170 212.61L180 205.46L190 149.79L200 101.83L210 129.47L220 215.18L230 166.56L240 195.5L250 204.38L260 194.35L270 200.1L280 118.48L290 98.78L300 104.17L310 92.41L320 107.09L330 32.98L340 44.05L350 23.38L360 51.15L370 5.37L380 8.66L390 84.79L400 103.5L410 36.88L420 8.38L430 69.99L440 101.26L450 32.36L460 117.37L470 74.43L480 114.9L490 115.16L500 186.82L510 211.34L520 164.69L530 234.04L540 200.03L550 218.53L560 201.95L570 130.25L580 205.41L590 225.95L600 258.13L610 247.96L620 297.52L630 297.67L640 284.26L650 312.75L660 328.63L670 305L680 309.05L690 218.84L700 293.28L710 282.09L720 274.25L730 200.22L740 176.53L750 185.56L760 234.24L770 242.66L780 197.13L790 223.01L800 310.49L810 398.13L820 342.38L830 309.11L840 318.8L850 277.48L860 346.21L870 376.59L880 337.03L890 396.69L900 461.14L910 440.02L920 382.71L930 392.06L940 373.84L950 343.32L960 411.9L970 423.3L980 458.06L990 528.5L1000 577.63L1010 583.71L1020 655.97L1030 574.8L1040 528.84L1050 589.93L1060 645.54L1070 664.51L1080 635.97L1090 568.44L1100 585.16L1110 527.15L1120 528.38L1130 536.19L1140 518.22L1150 577.11L1160 582.95L1170 624.77L1180 582.81L1190 495.92L1200 528.75L1210 550.03L1220 514.58L1230 495.36L1240 567.75L1250 560.63L1260 586.84L1270 635.39L1280 609.55L1290 578.88L1300 607.6L1310 697.89L1320 678.88L1330 662.61L1340 700.2L1350 618.8L1360 586.79L1370 510.46L1380 471.58L1390 548.87L1400 479L1410 534.62L1420 606.46L1430 532.13L1440 533.39L1450 475.81L1460 436.51L1470 375.83L1480 455.08L1490 511L1500 431.42L1510 352.21L1520 293.06L1530 315.28L1540 360.72L1540 739L0 739z" fill="url(&quot;#SvgjsLinearGradient1358&quot;)"></path></g><defs><mask id="SvgjsMask1356"><rect width="1536" height="739" fill="#ffffff"></rect></mask><linearGradient x1="12.97%" y1="-26.96%" x2="87.03%" y2="126.96%" gradientUnits="userSpaceOnUse" id="SvgjsLinearGradient1357"><stop stop-color="#0e2a47" offset="0"></stop><stop stop-color="rgba(0, 0, 0, 1)" offset="1"></stop></linearGradient><linearGradient x1="50%" y1="0%" x2="50%" y2="100%" id="SvgjsLinearGradient1358"><stop stop-opacity="0.65" stop-color="rgba(2, 255, 132, 1)" offset="0"></stop><stop stop-opacity="0" stop-color="#e4fff2" offset="0.8"></stop></linearGradient></defs></svg>