<svg xmlns="http://www.w3.org/2000/svg" version="1.1" xmlns:xlink="http://www.w3.org/1999/xlink" xmlns:svgjs="http://svgjs.dev/svgjs" width="1536" height="739" preserveAspectRatio="none" viewBox="0 0 1536 739"><g mask="url(&quot;#SvgjsMask1501&quot;)" fill="none"><rect width="1536" height="739" x="0" y="0" fill="url(&quot;#SvgjsLinearGradient1502&quot;)"></rect><g mask="url(&quot;#SvgjsMask1503&quot;)"><path d="M760.5 643.5L721.5 604.5M760.5 682.5L721.5 643.5M760.5 760.5L760.5 721.5L760.5 682.5L760.5 643.5L760.5 604.5L760.5 565.5L760.5 526.5" stroke="rgba(238, 176, 6, 1)" stroke-width="6.5"></path><path d="M750.75 526.5 a9.75 9.75 0 1 0 19.5 0 a9.75 9.75 0 1 0 -19.5 0zM711.75 604.5 a9.75 9.75 0 1 0 19.5 0 a9.75 9.75 0 1 0 -19.5 0zM711.75 643.5 a9.75 9.75 0 1 0 19.5 0 a9.75 9.75 0 1 0 -19.5 0z" fill="rgba(238, 176, 6, 1)"></path><path d="M799.5 487.5L838.5 448.5M799.5 643.5L838.5 604.5L877.5 565.5L877.5 526.5L877.5 487.5M799.5 526.5L838.5 487.5M799.5 760.5L799.5 721.5L799.5 682.5L799.5 643.5L799.5 604.5L799.5 565.5L799.5 526.5L799.5 487.5L799.5 448.5L799.5 409.5" stroke="rgba(41, 178, 68, 1)" stroke-width="6.5"></path><path d="M789.75 409.5 a9.75 9.75 0 1 0 19.5 0 a9.75 9.75 0 1 0 -19.5 0zM828.75 448.5 a9.75 9.75 0 1 0 19.5 0 a9.75 9.75 0 1 0 -19.5 0zM867.75 487.5 a9.75 9.75 0 1 0 19.5 0 a9.75 9.75 0 1 0 -19.5 0zM828.75 487.5 a9.75 9.75 0 1 0 19.5 0 a9.75 9.75 0 1 0 -19.5 0z" fill="rgba(41, 178, 68, 1)"></path><path d="M721.5 760.5L721.5 721.5" stroke="#dd1133" stroke-width="6.5"></path><path d="M711.75 721.5 a9.75 9.75 0 1 0 19.5 0 a9.75 9.75 0 1 0 -19.5 0z" fill="#dd1133"></path><path d="M838.5 760.5L838.5 721.5" stroke="rgba(238, 176, 6, 1)" stroke-width="6.5"></path><path d="M828.75 721.5 a9.75 9.75 0 1 0 19.5 0 a9.75 9.75 0 1 0 -19.5 0z" fill="rgba(238, 176, 6, 1)"></path><path d="M721.5 526.5L682.5 487.5L682.5 448.5L643.5 409.5L643.5 370.5M721.5 409.5L760.5 370.5M721.5 565.5L682.5 526.5M760.5 214.5L799.5 175.5M682.5 760.5L682.5 721.5L682.5 682.5L682.5 643.5L682.5 604.5L721.5 565.5L721.5 526.5L721.5 487.5L721.5 448.5L721.5 409.5L721.5 370.5L721.5 331.5L760.5 292.5L760.5 253.5L760.5 214.5L760.5 175.5" stroke="#dd1133" stroke-width="6.5"></path><path d="M750.75 175.5 a9.75 9.75 0 1 0 19.5 0 a9.75 9.75 0 1 0 -19.5 0zM633.75 370.5 a9.75 9.75 0 1 0 19.5 0 a9.75 9.75 0 1 0 -19.5 0zM750.75 370.5 a9.75 9.75 0 1 0 19.5 0 a9.75 9.75 0 1 0 -19.5 0zM672.75 526.5 a9.75 9.75 0 1 0 19.5 0 a9.75 9.75 0 1 0 -19.5 0zM789.75 175.5 a9.75 9.75 0 1 0 19.5 0 a9.75 9.75 0 1 0 -19.5 0z" fill="#dd1133"></path><path d="M916.5 370.5L877.5 331.5L877.5 292.5L877.5 253.5L877.5 214.5L877.5 175.5L877.5 136.5M916.5 409.5L877.5 370.5M916.5 448.5L877.5 409.5M916.5 175.5L955.5 136.5L955.5 97.5M877.5 760.5L877.5 721.5L877.5 682.5L877.5 643.5L877.5 604.5L916.5 565.5L916.5 526.5L916.5 487.5L916.5 448.5L916.5 409.5L916.5 370.5L916.5 331.5L916.5 292.5L916.5 253.5L916.5 214.5L916.5 175.5L916.5 136.5L916.5 97.5" stroke="#dd1133" stroke-width="6.5"></path><path d="M906.75 97.5 a9.75 9.75 0 1 0 19.5 0 a9.75 9.75 0 1 0 -19.5 0zM867.75 136.5 a9.75 9.75 0 1 0 19.5 0 a9.75 9.75 0 1 0 -19.5 0zM867.75 370.5 a9.75 9.75 0 1 0 19.5 0 a9.75 9.75 0 1 0 -19.5 0zM867.75 409.5 a9.75 9.75 0 1 0 19.5 0 a9.75 9.75 0 1 0 -19.5 0zM945.75 97.5 a9.75 9.75 0 1 0 19.5 0 a9.75 9.75 0 1 0 -19.5 0z" fill="#dd1133"></path><path d="M643.5 760.5L643.5 721.5" stroke="rgba(238, 176, 6, 1)" stroke-width="6.5"></path><path d="M633.75 721.5 a9.75 9.75 0 1 0 19.5 0 a9.75 9.75 0 1 0 -19.5 0z" fill="rgba(238, 176, 6, 1)"></path><path d="M955.5 409.5L994.5 370.5M994.5 175.5L1033.5 136.5M994.5 253.5L955.5 214.5L955.5 175.5M916.5 643.5L955.5 604.5M916.5 760.5L916.5 721.5L916.5 682.5L916.5 643.5L916.5 604.5L955.5 565.5L955.5 526.5L955.5 487.5L955.5 448.5L955.5 409.5L955.5 370.5L955.5 331.5L955.5 292.5L994.5 253.5L994.5 214.5L994.5 175.5L994.5 136.5" stroke="rgba(238, 176, 6, 1)" stroke-width="6.5"></path><path d="M984.75 136.5 a9.75 9.75 0 1 0 19.5 0 a9.75 9.75 0 1 0 -19.5 0zM984.75 370.5 a9.75 9.75 0 1 0 19.5 0 a9.75 9.75 0 1 0 -19.5 0zM1023.75 136.5 a9.75 9.75 0 1 0 19.5 0 a9.75 9.75 0 1 0 -19.5 0zM945.75 175.5 a9.75 9.75 0 1 0 19.5 0 a9.75 9.75 0 1 0 -19.5 0zM945.75 604.5 a9.75 9.75 0 1 0 19.5 0 a9.75 9.75 0 1 0 -19.5 0z" fill="rgba(238, 176, 6, 1)"></path><path d="M604.5 604.5L565.5 565.5M604.5 409.5L565.5 370.5L565.5 331.5L565.5 292.5M604.5 682.5L643.5 643.5L643.5 604.5L682.5 565.5M604.5 760.5L604.5 721.5L604.5 682.5L604.5 643.5L604.5 604.5L604.5 565.5L604.5 526.5L604.5 487.5L604.5 448.5L604.5 409.5L604.5 370.5L604.5 331.5" stroke="rgba(238, 176, 6, 1)" stroke-width="6.5"></path><path d="M594.75 331.5 a9.75 9.75 0 1 0 19.5 0 a9.75 9.75 0 1 0 -19.5 0zM555.75 565.5 a9.75 9.75 0 1 0 19.5 0 a9.75 9.75 0 1 0 -19.5 0zM555.75 292.5 a9.75 9.75 0 1 0 19.5 0 a9.75 9.75 0 1 0 -19.5 0zM672.75 565.5 a9.75 9.75 0 1 0 19.5 0 a9.75 9.75 0 1 0 -19.5 0z" fill="rgba(238, 176, 6, 1)"></path><path d="M1033.5 370.5L1033.5 331.5L1033.5 292.5M994.5 448.5L994.5 409.5M994.5 682.5L955.5 643.5M955.5 760.5L994.5 721.5L994.5 682.5L994.5 643.5L994.5 604.5L994.5 565.5L994.5 526.5L994.5 487.5L994.5 448.5L1033.5 409.5L1033.5 370.5L994.5 331.5L994.5 292.5L1033.5 253.5" stroke="rgba(41, 178, 68, 1)" stroke-width="6.5"></path><path d="M1023.75 253.5 a9.75 9.75 0 1 0 19.5 0 a9.75 9.75 0 1 0 -19.5 0zM1023.75 292.5 a9.75 9.75 0 1 0 19.5 0 a9.75 9.75 0 1 0 -19.5 0zM984.75 409.5 a9.75 9.75 0 1 0 19.5 0 a9.75 9.75 0 1 0 -19.5 0zM945.75 643.5 a9.75 9.75 0 1 0 19.5 0 a9.75 9.75 0 1 0 -19.5 0z" fill="rgba(41, 178, 68, 1)"></path><path d="M526.5 643.5L565.5 604.5M565.5 682.5L565.5 643.5M565.5 760.5L565.5 721.5L565.5 682.5L526.5 643.5L526.5 604.5L526.5 565.5" stroke="rgba(238, 176, 6, 1)" stroke-width="6.5"></path><path d="M516.75 565.5 a9.75 9.75 0 1 0 19.5 0 a9.75 9.75 0 1 0 -19.5 0zM555.75 604.5 a9.75 9.75 0 1 0 19.5 0 a9.75 9.75 0 1 0 -19.5 0zM555.75 643.5 a9.75 9.75 0 1 0 19.5 0 a9.75 9.75 0 1 0 -19.5 0z" fill="rgba(238, 176, 6, 1)"></path><path d="M487.5 565.5L448.5 526.5M526.5 760.5L526.5 721.5L526.5 682.5L487.5 643.5L487.5 604.5L487.5 565.5L487.5 526.5" stroke="rgba(41, 178, 68, 1)" stroke-width="6.5"></path><path d="M477.75 526.5 a9.75 9.75 0 1 0 19.5 0 a9.75 9.75 0 1 0 -19.5 0zM438.75 526.5 a9.75 9.75 0 1 0 19.5 0 a9.75 9.75 0 1 0 -19.5 0z" fill="rgba(41, 178, 68, 1)"></path><path d="M1033.5 643.5L1072.5 604.5L1072.5 565.5M1033.5 682.5L1072.5 643.5M1033.5 760.5L1033.5 721.5L1033.5 682.5L1033.5 643.5L1033.5 604.5L1033.5 565.5L1033.5 526.5L1033.5 487.5L1033.5 448.5L1072.5 409.5" stroke="rgba(41, 178, 68, 1)" stroke-width="6.5"></path><path d="M1062.75 409.5 a9.75 9.75 0 1 0 19.5 0 a9.75 9.75 0 1 0 -19.5 0zM1062.75 565.5 a9.75 9.75 0 1 0 19.5 0 a9.75 9.75 0 1 0 -19.5 0zM1062.75 643.5 a9.75 9.75 0 1 0 19.5 0 a9.75 9.75 0 1 0 -19.5 0z" fill="rgba(41, 178, 68, 1)"></path><path d="M448.5 643.5L448.5 604.5L448.5 565.5M409.5 370.5L448.5 331.5L448.5 292.5M409.5 292.5L370.5 253.5L370.5 214.5L370.5 175.5L370.5 136.5M409.5 331.5L370.5 292.5M487.5 760.5L487.5 721.5L487.5 682.5L448.5 643.5L409.5 604.5L409.5 565.5L409.5 526.5L409.5 487.5L409.5 448.5L409.5 409.5L409.5 370.5L409.5 331.5L409.5 292.5L409.5 253.5L409.5 214.5L409.5 175.5L409.5 136.5" stroke="rgba(41, 178, 68, 1)" stroke-width="6.5"></path><path d="M399.75 136.5 a9.75 9.75 0 1 0 19.5 0 a9.75 9.75 0 1 0 -19.5 0zM438.75 565.5 a9.75 9.75 0 1 0 19.5 0 a9.75 9.75 0 1 0 -19.5 0zM438.75 292.5 a9.75 9.75 0 1 0 19.5 0 a9.75 9.75 0 1 0 -19.5 0zM360.75 136.5 a9.75 9.75 0 1 0 19.5 0 a9.75 9.75 0 1 0 -19.5 0zM360.75 292.5 a9.75 9.75 0 1 0 19.5 0 a9.75 9.75 0 1 0 -19.5 0z" fill="rgba(41, 178, 68, 1)"></path><path d="M448.5 721.5L448.5 682.5M448.5 760.5L448.5 721.5L409.5 682.5L409.5 643.5L370.5 604.5L370.5 565.5L370.5 526.5L370.5 487.5L370.5 448.5" stroke="#dd1133" stroke-width="6.5"></path><path d="M360.75 448.5 a9.75 9.75 0 1 0 19.5 0 a9.75 9.75 0 1 0 -19.5 0zM438.75 682.5 a9.75 9.75 0 1 0 19.5 0 a9.75 9.75 0 1 0 -19.5 0z" fill="#dd1133"></path><path d="M1111.5 643.5L1150.5 604.5L1150.5 565.5L1150.5 526.5M1111.5 565.5L1111.5 526.5L1111.5 487.5L1111.5 448.5M1111.5 721.5L1150.5 682.5L1189.5 643.5L1189.5 604.5L1189.5 565.5M1111.5 760.5L1111.5 721.5L1111.5 682.5L1111.5 643.5L1111.5 604.5L1111.5 565.5L1072.5 526.5" stroke="rgba(238, 176, 6, 1)" stroke-width="6.5"></path><path d="M1062.75 526.5 a9.75 9.75 0 1 0 19.5 0 a9.75 9.75 0 1 0 -19.5 0zM1140.75 526.5 a9.75 9.75 0 1 0 19.5 0 a9.75 9.75 0 1 0 -19.5 0zM1101.75 448.5 a9.75 9.75 0 1 0 19.5 0 a9.75 9.75 0 1 0 -19.5 0zM1179.75 565.5 a9.75 9.75 0 1 0 19.5 0 a9.75 9.75 0 1 0 -19.5 0z" fill="rgba(238, 176, 6, 1)"></path><path d="M331.5 604.5L292.5 565.5L292.5 526.5L292.5 487.5L292.5 448.5M370.5 682.5L331.5 643.5L292.5 604.5L253.5 565.5L253.5 526.5M331.5 409.5L370.5 370.5L370.5 331.5L331.5 292.5M409.5 760.5L409.5 721.5L370.5 682.5L370.5 643.5L331.5 604.5L331.5 565.5L331.5 526.5L331.5 487.5L331.5 448.5L331.5 409.5L331.5 370.5" stroke="rgba(41, 178, 68, 1)" stroke-width="6.5"></path><path d="M321.75 370.5 a9.75 9.75 0 1 0 19.5 0 a9.75 9.75 0 1 0 -19.5 0zM282.75 448.5 a9.75 9.75 0 1 0 19.5 0 a9.75 9.75 0 1 0 -19.5 0zM243.75 526.5 a9.75 9.75 0 1 0 19.5 0 a9.75 9.75 0 1 0 -19.5 0zM321.75 292.5 a9.75 9.75 0 1 0 19.5 0 a9.75 9.75 0 1 0 -19.5 0z" fill="rgba(41, 178, 68, 1)"></path></g></g><defs><mask id="SvgjsMask1501"><rect width="1536" height="739" fill="#ffffff"></rect></mask><linearGradient x1="12.97%" y1="-26.96%" x2="87.03%" y2="126.96%" gradientUnits="userSpaceOnUse" id="SvgjsLinearGradient1502"><stop stop-color="#0e2a47" offset="0"></stop><stop stop-color="rgba(45, 102, 175, 1)" offset="1"></stop></linearGradient><mask id="SvgjsMask1503"><rect width="1536" height="739" fill="white"></rect><path d="M755.62 526.5 a4.88 4.88 0 1 0 9.76 0 a4.88 4.88 0 1 0 -9.76 0zM716.62 604.5 a4.88 4.88 0 1 0 9.76 0 a4.88 4.88 0 1 0 -9.76 0zM716.62 643.5 a4.88 4.88 0 1 0 9.76 0 a4.88 4.88 0 1 0 -9.76 0z" fill="black"></path><path d="M794.62 409.5 a4.88 4.88 0 1 0 9.76 0 a4.88 4.88 0 1 0 -9.76 0zM833.62 448.5 a4.88 4.88 0 1 0 9.76 0 a4.88 4.88 0 1 0 -9.76 0zM872.62 487.5 a4.88 4.88 0 1 0 9.76 0 a4.88 4.88 0 1 0 -9.76 0zM833.62 487.5 a4.88 4.88 0 1 0 9.76 0 a4.88 4.88 0 1 0 -9.76 0z" fill="black"></path><path d="M716.62 721.5 a4.88 4.88 0 1 0 9.76 0 a4.88 4.88 0 1 0 -9.76 0z" fill="black"></path><path d="M833.62 721.5 a4.88 4.88 0 1 0 9.76 0 a4.88 4.88 0 1 0 -9.76 0z" fill="black"></path><path d="M755.62 175.5 a4.88 4.88 0 1 0 9.76 0 a4.88 4.88 0 1 0 -9.76 0zM638.62 370.5 a4.88 4.88 0 1 0 9.76 0 a4.88 4.88 0 1 0 -9.76 0zM755.62 370.5 a4.88 4.88 0 1 0 9.76 0 a4.88 4.88 0 1 0 -9.76 0zM677.62 526.5 a4.88 4.88 0 1 0 9.76 0 a4.88 4.88 0 1 0 -9.76 0zM794.62 175.5 a4.88 4.88 0 1 0 9.76 0 a4.88 4.88 0 1 0 -9.76 0z" fill="black"></path><path d="M911.62 97.5 a4.88 4.88 0 1 0 9.76 0 a4.88 4.88 0 1 0 -9.76 0zM872.62 136.5 a4.88 4.88 0 1 0 9.76 0 a4.88 4.88 0 1 0 -9.76 0zM872.62 370.5 a4.88 4.88 0 1 0 9.76 0 a4.88 4.88 0 1 0 -9.76 0zM872.62 409.5 a4.88 4.88 0 1 0 9.76 0 a4.88 4.88 0 1 0 -9.76 0zM950.62 97.5 a4.88 4.88 0 1 0 9.76 0 a4.88 4.88 0 1 0 -9.76 0z" fill="black"></path><path d="M638.62 721.5 a4.88 4.88 0 1 0 9.76 0 a4.88 4.88 0 1 0 -9.76 0z" fill="black"></path><path d="M989.62 136.5 a4.88 4.88 0 1 0 9.76 0 a4.88 4.88 0 1 0 -9.76 0zM989.62 370.5 a4.88 4.88 0 1 0 9.76 0 a4.88 4.88 0 1 0 -9.76 0zM1028.62 136.5 a4.88 4.88 0 1 0 9.76 0 a4.88 4.88 0 1 0 -9.76 0zM950.62 175.5 a4.88 4.88 0 1 0 9.76 0 a4.88 4.88 0 1 0 -9.76 0zM950.62 604.5 a4.88 4.88 0 1 0 9.76 0 a4.88 4.88 0 1 0 -9.76 0z" fill="black"></path><path d="M599.62 331.5 a4.88 4.88 0 1 0 9.76 0 a4.88 4.88 0 1 0 -9.76 0zM560.62 565.5 a4.88 4.88 0 1 0 9.76 0 a4.88 4.88 0 1 0 -9.76 0zM560.62 292.5 a4.88 4.88 0 1 0 9.76 0 a4.88 4.88 0 1 0 -9.76 0zM677.62 565.5 a4.88 4.88 0 1 0 9.76 0 a4.88 4.88 0 1 0 -9.76 0z" fill="black"></path><path d="M1028.62 253.5 a4.88 4.88 0 1 0 9.76 0 a4.88 4.88 0 1 0 -9.76 0zM1028.62 292.5 a4.88 4.88 0 1 0 9.76 0 a4.88 4.88 0 1 0 -9.76 0zM989.62 409.5 a4.88 4.88 0 1 0 9.76 0 a4.88 4.88 0 1 0 -9.76 0zM950.62 643.5 a4.88 4.88 0 1 0 9.76 0 a4.88 4.88 0 1 0 -9.76 0z" fill="black"></path><path d="M521.62 565.5 a4.88 4.88 0 1 0 9.76 0 a4.88 4.88 0 1 0 -9.76 0zM560.62 604.5 a4.88 4.88 0 1 0 9.76 0 a4.88 4.88 0 1 0 -9.76 0zM560.62 643.5 a4.88 4.88 0 1 0 9.76 0 a4.88 4.88 0 1 0 -9.76 0z" fill="black"></path><path d="M482.62 526.5 a4.88 4.88 0 1 0 9.76 0 a4.88 4.88 0 1 0 -9.76 0zM443.62 526.5 a4.88 4.88 0 1 0 9.76 0 a4.88 4.88 0 1 0 -9.76 0z" fill="black"></path><path d="M1067.62 409.5 a4.88 4.88 0 1 0 9.76 0 a4.88 4.88 0 1 0 -9.76 0zM1067.62 565.5 a4.88 4.88 0 1 0 9.76 0 a4.88 4.88 0 1 0 -9.76 0zM1067.62 643.5 a4.88 4.88 0 1 0 9.76 0 a4.88 4.88 0 1 0 -9.76 0z" fill="black"></path><path d="M404.62 136.5 a4.88 4.88 0 1 0 9.76 0 a4.88 4.88 0 1 0 -9.76 0zM443.62 565.5 a4.88 4.88 0 1 0 9.76 0 a4.88 4.88 0 1 0 -9.76 0zM443.62 292.5 a4.88 4.88 0 1 0 9.76 0 a4.88 4.88 0 1 0 -9.76 0zM365.62 136.5 a4.88 4.88 0 1 0 9.76 0 a4.88 4.88 0 1 0 -9.76 0zM365.62 292.5 a4.88 4.88 0 1 0 9.76 0 a4.88 4.88 0 1 0 -9.76 0z" fill="black"></path><path d="M365.62 448.5 a4.88 4.88 0 1 0 9.76 0 a4.88 4.88 0 1 0 -9.76 0zM443.62 682.5 a4.88 4.88 0 1 0 9.76 0 a4.88 4.88 0 1 0 -9.76 0z" fill="black"></path><path d="M1067.62 526.5 a4.88 4.88 0 1 0 9.76 0 a4.88 4.88 0 1 0 -9.76 0zM1145.62 526.5 a4.88 4.88 0 1 0 9.76 0 a4.88 4.88 0 1 0 -9.76 0zM1106.62 448.5 a4.88 4.88 0 1 0 9.76 0 a4.88 4.88 0 1 0 -9.76 0zM1184.62 565.5 a4.88 4.88 0 1 0 9.76 0 a4.88 4.88 0 1 0 -9.76 0z" fill="black"></path><path d="M326.62 370.5 a4.88 4.88 0 1 0 9.76 0 a4.88 4.88 0 1 0 -9.76 0zM287.62 448.5 a4.88 4.88 0 1 0 9.76 0 a4.88 4.88 0 1 0 -9.76 0zM248.62 526.5 a4.88 4.88 0 1 0 9.76 0 a4.88 4.88 0 1 0 -9.76 0zM326.62 292.5 a4.88 4.88 0 1 0 9.76 0 a4.88 4.88 0 1 0 -9.76 0z" fill="black"></path></mask></defs></svg>