<svg xmlns="http://www.w3.org/2000/svg" version="1.1" xmlns:xlink="http://www.w3.org/1999/xlink" xmlns:svgjs="http://svgjs.dev/svgjs" width="1536" height="739" preserveAspectRatio="none" viewBox="0 0 1536 739"><g mask="url(&quot;#SvgjsMask1510&quot;)" fill="none"><rect width="1536" height="739" x="0" y="0" fill="rgba(218, 190, 11, 1)"></rect><use xlink:href="#SvgjsG1517" transform="translate(0, 0)" fill="rgba(15, 11, 0, 1)"></use><use xlink:href="#SvgjsG1517" transform="translate(0, 480)" fill="rgba(15, 11, 0, 1)"></use><use xlink:href="#SvgjsG1517" transform="translate(480, 0)" fill="rgba(15, 11, 0, 1)"></use><use xlink:href="#SvgjsG1517" transform="translate(480, 480)" fill="rgba(15, 11, 0, 1)"></use><use xlink:href="#SvgjsG1517" transform="translate(960, 0)" fill="rgba(15, 11, 0, 1)"></use><use xlink:href="#SvgjsG1517" transform="translate(960, 480)" fill="rgba(15, 11, 0, 1)"></use><use xlink:href="#SvgjsG1517" transform="translate(1440, 0)" fill="rgba(15, 11, 0, 1)"></use><use xlink:href="#SvgjsG1517" transform="translate(1440, 480)" fill="rgba(15, 11, 0, 1)"></use></g><defs><mask id="SvgjsMask1510"><rect width="1536" height="739" fill="#ffffff"></rect></mask><g id="SvgjsG1516"><path d="M2.396 6.756V16h3.56V10.315H10.085V16h3.559V6.756z"></path><path d="M0.064 8L8.02 0l7.956 8z"></path></g><g id="SvgjsG1513"><path d="M8.541 10.856h1.001v1H8.541zM8.243 14.859H10.041v-2.002h-2.001v2.002h0.201z"></path><path d="M14.225 9.282V3.277l-2.788 1.716v2.573h-1.067V4.125h-1.293V1.132h-3.432v4.899h-1.716v-1.682L2.536 3.492 1.142 4.349v3.003H0.07v7.507h3.216V9.103a1.501 1.501 0 0 1 3.004 0v1.184l-1.131 2.874h0.702v1.698h0.429v-2.127h-0.501l0.844-2.146 2.408-0.982 2.409 0.982 0.845 2.146h-0.501v2.127h0.846l2.872-0.001V9.282h-1.287z"></path></g><g id="SvgjsG1515"><path d="M5.485 13.99H0l0.004-1.074h5.481z m0-1.626H0l0.004-1.074h5.481z m0-1.631H0l0.004-1.074h5.481z m0-1.63H0l0.004-1.074h5.481zM7.707 2.567A0.665 0.665 0 0 0 7.097 2.16l-0.883 0.004V13.99h4.178L7.706 2.566zM5.485 7.473H0l0.004-1.07h5.481z m0-1.627H0l0.004-1.074h5.481z m0-1.63H0l0.004-1.074h5.481z m5.417 8.838a1.286 1.286 0 0 0 0.242 0.023 1.469 1.469 0 0 0 0.598-0.13 1.444 1.444 0 0 1 0.618-0.139c0.219 0 0.426 0.05 0.613 0.137 0.18 0.08 0.388 0.13 0.599 0.131s0.414-0.05 0.598-0.131a1.427 1.427 0 0 1 0.614-0.138 1.456 1.456 0 0 1 0.617 0.138 1.467 1.467 0 0 0 0.599 0.13v0.894a1.467 1.467 0 0 1-0.599-0.127 1.454 1.454 0 0 0-0.617-0.138 1.427 1.427 0 0 0-0.615 0.138 1.479 1.479 0 0 1-1.196 0 1.443 1.443 0 0 0-1.232 0 1.467 1.467 0 0 1-0.599 0.126h-0.035l-0.207-0.916z m-0.357-1.753c0.184 0.081 0.387 0.13 0.599 0.131a1.469 1.469 0 0 0 0.598-0.131 1.441 1.441 0 0 1 1.231 0c0.18 0.081 0.388 0.13 0.599 0.131s0.414-0.05 0.598-0.131a1.424 1.424 0 0 1 0.614-0.138 1.456 1.456 0 0 1 0.617 0.138 1.467 1.467 0 0 0 0.599 0.131v0.893a1.467 1.467 0 0 1-0.599-0.126 1.454 1.454 0 0 0-0.617-0.138 1.427 1.427 0 0 0-0.614 0.138c-0.184 0.08-0.388 0.126-0.598 0.126s-0.418-0.046-0.599-0.126a1.443 1.443 0 0 0-1.231 0 1.467 1.467 0 0 1-0.598 0.126 1.394 1.394 0 0 1-0.38-0.049l-0.219-0.975z"></path></g><g id="SvgjsG1511"><path d="M7.307 2.963c-1.9 0-2.983-1.592-2.997-1.613l0.688-0.456c0.062 0.094 1.572 2.276 4.211 0.617l0.44 0.698c-0.877 0.552-1.661 0.756-2.341 0.755zM14.34 2.91h0.828c-0.046-0.811-0.488-1.495-1.242-1.926-1.098-0.627-2.686-0.609-3.952 0.044l0.377 0.734c1.028-0.531 2.301-0.556 3.166-0.063 0.348 0.199 0.768 0.57 0.823 1.211zM15.158 3.825H14.339l-0.289 8.69-4.644-3.095v3.096l-4.646-3.096v3.096l-4.646-3.096v6.4h15.442l-0.398-11.995zM4.035 15.018H0.916v-1.52h3.121v1.52z m4.647 0H5.561v-1.52h3.121v1.52z m4.645 0H10.207v-1.52h3.12v1.52z"></path></g><g id="SvgjsG1512"><path d="M8.312 8.242l0 0.521c0.492-0.069 0.443-0.509 0-0.52v-0.001z m-0.51-0.627V7.155c-0.365 0.064-0.358 0.454 0 0.46z"></path><path d="M8.055 5.946c-1.128 0-2.044 0.915-2.044 2.043 0 1.129 0.915 2.044 2.045 2.044 1.129 0 2.043-0.915 2.043-2.044 0-1.128-0.915-2.043-2.043-2.043l-0.001 0z m0.251 3.336v0.364h-0.507v-0.37c-0.29-0.043-0.822-0.323-0.855-0.924h0.534c0.034 0.154 0.078 0.34 0.321 0.409l-0.001-0.605c-0.334-0.048-0.814-0.194-0.814-0.73 0-0.602 0.666-0.789 0.813-0.789v-0.364h0.502v0.364c0.338 0.02 0.83 0.302 0.829 0.84h-0.528c-0.014-0.16-0.137-0.317-0.296-0.327v0.554c0.403 0.041 0.877 0.195 0.877 0.738 0 0.473-0.475 0.818-0.877 0.84h0.002z"></path><path d="M0 11.93h16V4H0v7.93z m1.508-1.508V5.508h12.984V10.422H1.508z"></path></g><g id="SvgjsG1514"><path d="M0 13.15h2.917V10.189h2.891V7.203h2.943V4.277h2.917V1.36H16v1.485H13.117v2.926h-2.916v2.96h-2.917V11.674h-2.935v2.978H0z"></path></g><g id="SvgjsG1517"><use xlink:href="#SvgjsG1511" transform="translate(0, 0) scale(2)" fill="rgba(15, 11, 0, 1)"></use><use xlink:href="#SvgjsG1512" transform="translate(0, 48) scale(2)" fill="rgba(15, 11, 0, 1)"></use><use xlink:href="#SvgjsG1511" transform="translate(0, 96) scale(2)" fill="rgba(15, 11, 0, 1)"></use><use xlink:href="#SvgjsG1513" transform="translate(0, 144) scale(2)" fill="rgba(15, 11, 0, 1)"></use><use xlink:href="#SvgjsG1512" transform="translate(0, 192) scale(2)" fill="rgba(15, 11, 0, 1)"></use><use xlink:href="#SvgjsG1512" transform="translate(0, 240) scale(2)" fill="rgba(15, 11, 0, 1)"></use><use xlink:href="#SvgjsG1513" transform="translate(0, 288) scale(2)" fill="rgba(15, 11, 0, 1)"></use><use xlink:href="#SvgjsG1514" transform="translate(0, 336) scale(2)" fill="rgba(15, 11, 0, 1)"></use><use xlink:href="#SvgjsG1514" transform="translate(0, 384) scale(2)" fill="rgba(15, 11, 0, 1)"></use><use xlink:href="#SvgjsG1514" transform="translate(0, 432) scale(2)" fill="rgba(15, 11, 0, 1)"></use><use xlink:href="#SvgjsG1511" transform="translate(48, 0) scale(2)" fill="rgba(15, 11, 0, 1)"></use><use xlink:href="#SvgjsG1515" transform="translate(48, 48) scale(2)" fill="rgba(15, 11, 0, 1)"></use><use xlink:href="#SvgjsG1516" transform="translate(48, 96) scale(2)" fill="rgba(15, 11, 0, 1)"></use><use xlink:href="#SvgjsG1515" transform="translate(48, 144) scale(2)" fill="rgba(15, 11, 0, 1)"></use><use xlink:href="#SvgjsG1512" transform="translate(48, 192) scale(2)" fill="rgba(15, 11, 0, 1)"></use><use xlink:href="#SvgjsG1516" transform="translate(48, 240) scale(2)" fill="rgba(15, 11, 0, 1)"></use><use xlink:href="#SvgjsG1516" transform="translate(48, 288) scale(2)" fill="rgba(15, 11, 0, 1)"></use><use xlink:href="#SvgjsG1512" transform="translate(48, 336) scale(2)" fill="rgba(15, 11, 0, 1)"></use><use xlink:href="#SvgjsG1516" transform="translate(48, 384) scale(2)" fill="rgba(15, 11, 0, 1)"></use><use xlink:href="#SvgjsG1515" transform="translate(48, 432) scale(2)" fill="rgba(15, 11, 0, 1)"></use><use xlink:href="#SvgjsG1516" transform="translate(96, 0) scale(2)" fill="rgba(15, 11, 0, 1)"></use><use xlink:href="#SvgjsG1514" transform="translate(96, 48) scale(2)" fill="rgba(15, 11, 0, 1)"></use><use xlink:href="#SvgjsG1511" transform="translate(96, 96) scale(2)" fill="rgba(15, 11, 0, 1)"></use><use xlink:href="#SvgjsG1513" transform="translate(96, 144) scale(2)" fill="rgba(15, 11, 0, 1)"></use><use xlink:href="#SvgjsG1515" transform="translate(96, 192) scale(2)" fill="rgba(15, 11, 0, 1)"></use><use xlink:href="#SvgjsG1515" transform="translate(96, 240) scale(2)" fill="rgba(15, 11, 0, 1)"></use><use xlink:href="#SvgjsG1516" transform="translate(96, 288) scale(2)" fill="rgba(15, 11, 0, 1)"></use><use xlink:href="#SvgjsG1514" transform="translate(96, 336) scale(2)" fill="rgba(15, 11, 0, 1)"></use><use xlink:href="#SvgjsG1515" transform="translate(96, 384) scale(2)" fill="rgba(15, 11, 0, 1)"></use><use xlink:href="#SvgjsG1516" transform="translate(96, 432) scale(2)" fill="rgba(15, 11, 0, 1)"></use><use xlink:href="#SvgjsG1515" transform="translate(144, 0) scale(2)" fill="rgba(15, 11, 0, 1)"></use><use xlink:href="#SvgjsG1512" transform="translate(144, 48) scale(2)" fill="rgba(15, 11, 0, 1)"></use><use xlink:href="#SvgjsG1515" transform="translate(144, 96) scale(2)" fill="rgba(15, 11, 0, 1)"></use><use xlink:href="#SvgjsG1514" transform="translate(144, 144) scale(2)" fill="rgba(15, 11, 0, 1)"></use><use xlink:href="#SvgjsG1512" transform="translate(144, 192) scale(2)" fill="rgba(15, 11, 0, 1)"></use><use xlink:href="#SvgjsG1511" transform="translate(144, 240) scale(2)" fill="rgba(15, 11, 0, 1)"></use><use xlink:href="#SvgjsG1516" transform="translate(144, 288) scale(2)" fill="rgba(15, 11, 0, 1)"></use><use xlink:href="#SvgjsG1511" transform="translate(144, 336) scale(2)" fill="rgba(15, 11, 0, 1)"></use><use xlink:href="#SvgjsG1516" transform="translate(144, 384) scale(2)" fill="rgba(15, 11, 0, 1)"></use><use xlink:href="#SvgjsG1513" transform="translate(144, 432) scale(2)" fill="rgba(15, 11, 0, 1)"></use><use xlink:href="#SvgjsG1512" transform="translate(192, 0) scale(2)" fill="rgba(15, 11, 0, 1)"></use><use xlink:href="#SvgjsG1515" transform="translate(192, 48) scale(2)" fill="rgba(15, 11, 0, 1)"></use><use xlink:href="#SvgjsG1511" transform="translate(192, 96) scale(2)" fill="rgba(15, 11, 0, 1)"></use><use xlink:href="#SvgjsG1516" transform="translate(192, 144) scale(2)" fill="rgba(15, 11, 0, 1)"></use><use xlink:href="#SvgjsG1514" transform="translate(192, 192) scale(2)" fill="rgba(15, 11, 0, 1)"></use><use xlink:href="#SvgjsG1515" transform="translate(192, 240) scale(2)" fill="rgba(15, 11, 0, 1)"></use><use xlink:href="#SvgjsG1514" transform="translate(192, 288) scale(2)" fill="rgba(15, 11, 0, 1)"></use><use xlink:href="#SvgjsG1511" transform="translate(192, 336) scale(2)" fill="rgba(15, 11, 0, 1)"></use><use xlink:href="#SvgjsG1514" transform="translate(192, 384) scale(2)" fill="rgba(15, 11, 0, 1)"></use><use xlink:href="#SvgjsG1513" transform="translate(192, 432) scale(2)" fill="rgba(15, 11, 0, 1)"></use><use xlink:href="#SvgjsG1512" transform="translate(240, 0) scale(2)" fill="rgba(15, 11, 0, 1)"></use><use xlink:href="#SvgjsG1513" transform="translate(240, 48) scale(2)" fill="rgba(15, 11, 0, 1)"></use><use xlink:href="#SvgjsG1513" transform="translate(240, 96) scale(2)" fill="rgba(15, 11, 0, 1)"></use><use xlink:href="#SvgjsG1513" transform="translate(240, 144) scale(2)" fill="rgba(15, 11, 0, 1)"></use><use xlink:href="#SvgjsG1512" transform="translate(240, 192) scale(2)" fill="rgba(15, 11, 0, 1)"></use><use xlink:href="#SvgjsG1514" transform="translate(240, 240) scale(2)" fill="rgba(15, 11, 0, 1)"></use><use xlink:href="#SvgjsG1512" transform="translate(240, 288) scale(2)" fill="rgba(15, 11, 0, 1)"></use><use xlink:href="#SvgjsG1512" transform="translate(240, 336) scale(2)" fill="rgba(15, 11, 0, 1)"></use><use xlink:href="#SvgjsG1513" transform="translate(240, 384) scale(2)" fill="rgba(15, 11, 0, 1)"></use><use xlink:href="#SvgjsG1516" transform="translate(240, 432) scale(2)" fill="rgba(15, 11, 0, 1)"></use><use xlink:href="#SvgjsG1513" transform="translate(288, 0) scale(2)" fill="rgba(15, 11, 0, 1)"></use><use xlink:href="#SvgjsG1515" transform="translate(288, 48) scale(2)" fill="rgba(15, 11, 0, 1)"></use><use xlink:href="#SvgjsG1513" transform="translate(288, 96) scale(2)" fill="rgba(15, 11, 0, 1)"></use><use xlink:href="#SvgjsG1513" transform="translate(288, 144) scale(2)" fill="rgba(15, 11, 0, 1)"></use><use xlink:href="#SvgjsG1514" transform="translate(288, 192) scale(2)" fill="rgba(15, 11, 0, 1)"></use><use xlink:href="#SvgjsG1515" transform="translate(288, 240) scale(2)" fill="rgba(15, 11, 0, 1)"></use><use xlink:href="#SvgjsG1511" transform="translate(288, 288) scale(2)" fill="rgba(15, 11, 0, 1)"></use><use xlink:href="#SvgjsG1515" transform="translate(288, 336) scale(2)" fill="rgba(15, 11, 0, 1)"></use><use xlink:href="#SvgjsG1514" transform="translate(288, 384) scale(2)" fill="rgba(15, 11, 0, 1)"></use><use xlink:href="#SvgjsG1511" transform="translate(288, 432) scale(2)" fill="rgba(15, 11, 0, 1)"></use><use xlink:href="#SvgjsG1515" transform="translate(336, 0) scale(2)" fill="rgba(15, 11, 0, 1)"></use><use xlink:href="#SvgjsG1511" transform="translate(336, 48) scale(2)" fill="rgba(15, 11, 0, 1)"></use><use xlink:href="#SvgjsG1512" transform="translate(336, 96) scale(2)" fill="rgba(15, 11, 0, 1)"></use><use xlink:href="#SvgjsG1515" transform="translate(336, 144) scale(2)" fill="rgba(15, 11, 0, 1)"></use><use xlink:href="#SvgjsG1512" transform="translate(336, 192) scale(2)" fill="rgba(15, 11, 0, 1)"></use><use xlink:href="#SvgjsG1515" transform="translate(336, 240) scale(2)" fill="rgba(15, 11, 0, 1)"></use><use xlink:href="#SvgjsG1511" transform="translate(336, 288) scale(2)" fill="rgba(15, 11, 0, 1)"></use><use xlink:href="#SvgjsG1514" transform="translate(336, 336) scale(2)" fill="rgba(15, 11, 0, 1)"></use><use xlink:href="#SvgjsG1516" transform="translate(336, 384) scale(2)" fill="rgba(15, 11, 0, 1)"></use><use xlink:href="#SvgjsG1511" transform="translate(336, 432) scale(2)" fill="rgba(15, 11, 0, 1)"></use><use xlink:href="#SvgjsG1515" transform="translate(384, 0) scale(2)" fill="rgba(15, 11, 0, 1)"></use><use xlink:href="#SvgjsG1512" transform="translate(384, 48) scale(2)" fill="rgba(15, 11, 0, 1)"></use><use xlink:href="#SvgjsG1514" transform="translate(384, 96) scale(2)" fill="rgba(15, 11, 0, 1)"></use><use xlink:href="#SvgjsG1515" transform="translate(384, 144) scale(2)" fill="rgba(15, 11, 0, 1)"></use><use xlink:href="#SvgjsG1511" transform="translate(384, 192) scale(2)" fill="rgba(15, 11, 0, 1)"></use><use xlink:href="#SvgjsG1511" transform="translate(384, 240) scale(2)" fill="rgba(15, 11, 0, 1)"></use><use xlink:href="#SvgjsG1511" transform="translate(384, 288) scale(2)" fill="rgba(15, 11, 0, 1)"></use><use xlink:href="#SvgjsG1511" transform="translate(384, 336) scale(2)" fill="rgba(15, 11, 0, 1)"></use><use xlink:href="#SvgjsG1515" transform="translate(384, 384) scale(2)" fill="rgba(15, 11, 0, 1)"></use><use xlink:href="#SvgjsG1516" transform="translate(384, 432) scale(2)" fill="rgba(15, 11, 0, 1)"></use><use xlink:href="#SvgjsG1512" transform="translate(432, 0) scale(2)" fill="rgba(15, 11, 0, 1)"></use><use xlink:href="#SvgjsG1515" transform="translate(432, 48) scale(2)" fill="rgba(15, 11, 0, 1)"></use><use xlink:href="#SvgjsG1515" transform="translate(432, 96) scale(2)" fill="rgba(15, 11, 0, 1)"></use><use xlink:href="#SvgjsG1512" transform="translate(432, 144) scale(2)" fill="rgba(15, 11, 0, 1)"></use><use xlink:href="#SvgjsG1514" transform="translate(432, 192) scale(2)" fill="rgba(15, 11, 0, 1)"></use><use xlink:href="#SvgjsG1514" transform="translate(432, 240) scale(2)" fill="rgba(15, 11, 0, 1)"></use><use xlink:href="#SvgjsG1515" transform="translate(432, 288) scale(2)" fill="rgba(15, 11, 0, 1)"></use><use xlink:href="#SvgjsG1512" transform="translate(432, 336) scale(2)" fill="rgba(15, 11, 0, 1)"></use><use xlink:href="#SvgjsG1514" transform="translate(432, 384) scale(2)" fill="rgba(15, 11, 0, 1)"></use><use xlink:href="#SvgjsG1511" transform="translate(432, 432) scale(2)" fill="rgba(15, 11, 0, 1)"></use></g></defs></svg>